<?xml version="1.0" encoding="UTF-8"?>
<svg version="1.1" xmlns="http://www.w3.org/2000/svg" width="493" height="247">
<path d="M0 0 C3.25339562 1.24181108 6.26097934 2.61888334 9.2734375 4.36328125 C10.08586914 4.8310498 10.89830078 5.29881836 11.73535156 5.78076172 C12.60643555 6.28623535 13.47751953 6.79170898 14.375 7.3125 C16.27315122 8.40544526 18.17159898 9.49787563 20.0703125 10.58984375 C21.05032227 11.15429199 22.03033203 11.71874023 23.04003906 12.30029297 C27.7645952 15.01328866 32.50622652 17.69578694 37.25 20.375 C38.19045166 20.90657715 39.13090332 21.4381543 40.09985352 21.98583984 C45.27975583 24.91047827 50.46661327 27.82230739 55.66015625 30.72265625 C56.77036133 31.34285645 57.88056641 31.96305664 59.02441406 32.60205078 C61.14921712 33.78814147 63.27481393 34.97281184 65.40136719 36.15576172 C67.33835331 37.2366549 69.27194715 38.32365553 71.20166016 39.41748047 C73.10855998 40.49587208 75.02544229 41.55675594 76.95068359 42.60205078 C77.8680127 43.11622559 78.7853418 43.63040039 79.73046875 44.16015625 C80.55313232 44.61140869 81.3757959 45.06266113 82.22338867 45.52758789 C82.80967041 46.01348389 83.39595215 46.49937988 84 47 C84 48.32 84 49.64 84 51 C80.56370273 53.08632334 80.56370273 53.08632334 78.17456055 52.72045898 C75.59058958 51.86435723 73.35026238 50.7094143 70.95703125 49.41015625 C69.48375366 48.61266968 69.48375366 48.61266968 67.98071289 47.79907227 C66.93520264 47.22600342 65.88969238 46.65293457 64.8125 46.0625 C63.7289624 45.47202881 62.6454248 44.88155762 61.52905273 44.27319336 C54.81459009 40.5957874 48.17487902 36.81717111 41.6027832 32.89208984 C32.11776429 27.24497272 22.47866009 21.83127539 12.76489258 16.58789062 C10 15 10 15 7.6784668 13.25585938 C5.38570748 11.60868942 3.76599595 10.59329027 1 10 C-3.53792596 11.25948509 -7.23361028 13.61428903 -11.1875 16.125 C-12.84579834 17.11693359 -12.84579834 17.11693359 -14.53759766 18.12890625 C-17.71887252 20.04579834 -20.86377544 22.01045918 -24 24 C-25.15894775 24.72848145 -25.15894775 24.72848145 -26.34130859 25.47167969 C-29.17014666 27.25607645 -31.97067513 29.0646524 -34.7421875 30.9375 C-41.3922282 35.14759771 -48.12623774 38.72117828 -55.48583984 41.52685547 C-67.10916881 46.34507757 -67.10916881 46.34507757 -74.76356506 55.82655334 C-77.78267103 66.59116621 -76.47380447 78.49522113 -75.77490234 89.50292969 C-75.52596961 93.85722536 -75.42436811 98.21471904 -75.30859375 102.57421875 C-75.05709801 111.06859159 -74.66077251 119.54502977 -74.11353302 128.02533722 C-74.00204929 129.964357 -73.93501996 131.90576879 -73.86883545 133.84686279 C-73.81721252 135.00969788 -73.7655896 136.17253296 -73.71240234 137.37060547 C-73.67915863 138.38057587 -73.64591492 139.39054626 -73.61166382 140.43112183 C-72.81204396 143.78938159 -71.50170505 144.63687143 -68.625 146.4375 C-66.76553299 147.32497289 -64.88952614 148.17846689 -63 149 C-61.19959596 149.96300681 -59.40787145 150.94240896 -57.625 151.9375 C-56.70976563 152.43121094 -55.79453125 152.92492187 -54.8515625 153.43359375 C-51.86923337 155.07183208 -48.93330578 156.77564066 -46 158.5 C-39.25928215 162.4544391 -32.42277641 166.20256435 -25.50390625 169.8359375 C-24.25244834 170.49449563 -23.00114955 171.15335623 -21.75 171.8125 C-21.12327393 172.1410498 -20.49654785 172.46959961 -19.85083008 172.80810547 C-16.45233105 174.61251886 -13.14253458 176.50125669 -9.8828125 178.546875 C-9.2115332 178.96606201 -8.54025391 179.38524902 -7.84863281 179.81713867 C-6.56094267 180.62967051 -5.28112936 181.45486215 -4.01074219 182.29418945 C-1.37351623 183.95829214 0.44451618 185.01249214 3.60546875 184.94140625 C6.38763954 183.84760012 8.67901815 182.50958197 11.1875 180.875 C17.68168487 176.74277565 24.32351557 172.89175563 31 169.0625 C40.33045626 163.69890904 49.64804312 158.31447193 58.93847656 152.88180542 C60.22146558 152.13195964 61.50498811 151.3830259 62.7890625 150.63504028 C64.58737212 149.587251 66.38376877 148.53625569 68.1796875 147.484375 C69.20819824 146.88334961 70.23670898 146.28232422 71.29638672 145.66308594 C73.98294664 144.07637991 73.98294664 144.07637991 76.23876953 142.27050781 C78 141 78 141 80 141.1875 C82.06348821 142.02579209 84.03678574 142.94827807 86 144 C86 144.99 86 145.98 86 147 C85.43418213 147.31525635 84.86836426 147.6305127 84.28540039 147.95532227 C71.88278887 154.88016545 59.6043753 161.97611667 47.4453125 169.3203125 C39.05784568 174.38207552 30.61439987 179.34140526 22.14086914 184.25756836 C20.75822876 185.06013062 20.75822876 185.06013062 19.34765625 185.87890625 C18.4570752 186.38953613 17.56649414 186.90016602 16.64892578 187.42626953 C14.83605831 188.5032966 13.05349156 189.63254634 11.30029297 190.80419922 C10.43678223 191.37283691 9.57327148 191.94147461 8.68359375 192.52734375 C7.9248999 193.0493335 7.16620605 193.57132324 6.38452148 194.10913086 C2.9633596 195.38729403 1.29129955 194.44229026 -2 193 C-3.90671828 192.051834 -5.78924352 191.05388851 -7.6484375 190.015625 C-8.72375732 189.41733887 -9.79907715 188.81905273 -10.90698242 188.20263672 C-12.05142822 187.5582666 -13.19587402 186.91389648 -14.375 186.25 C-15.58362439 185.5741743 -16.79236646 184.89855901 -18.0012207 184.22314453 C-26.76847786 179.31187812 -35.44728272 174.2557503 -44.10620117 169.15600586 C-54.13237215 163.27888385 -64.35153577 157.77053965 -74.61010742 152.31176758 C-75.39877197 151.87888428 -76.18743652 151.44600098 -77 151 C-77.90999756 150.68530762 -78.81999512 150.37061523 -79.75756836 150.04638672 C-82.50006591 147.54365243 -82.40973535 146.70993959 -82.68505859 143.0949707 C-82.74003533 140.93490622 -82.7671667 138.77403614 -82.7734375 136.61328125 C-82.79578461 135.42873856 -82.81813171 134.24419586 -82.84115601 133.02375793 C-82.88779886 130.41371475 -82.9253037 127.8050803 -82.95007324 125.19488525 C-82.9947474 120.87011196 -83.09913395 116.54768077 -83.20800781 112.22412109 C-83.37820011 105.25777177 -83.48644697 98.29249652 -83.54825211 91.32435417 C-83.58479128 87.31661372 -83.63954715 83.31078835 -83.73388672 79.30395508 C-83.82664711 75.34335326 -83.87531647 71.38447136 -83.89283371 67.42284584 C-83.9068474 65.93434179 -83.93630476 64.4458931 -83.98213577 62.95802879 C-84.31887674 51.52210176 -84.31887674 51.52210176 -81.13792419 47.85099792 C-78.82251175 46.27708687 -76.56345539 45.1158537 -74 44 C-72.99042236 43.38890381 -71.98084473 42.77780762 -70.94067383 42.14819336 C-70.03857178 41.63393799 -69.13646973 41.11968262 -68.20703125 40.58984375 C-67.17634521 39.99945313 -66.14565918 39.4090625 -65.08374023 38.80078125 C-64.00423096 38.18589844 -62.92472168 37.57101563 -61.8125 36.9375 C-59.48646775 35.60374408 -57.16085566 34.26928752 -54.8359375 32.93359375 C-53.9649366 32.43362381 -53.9649366 32.43362381 -53.07633972 31.92355347 C-39.34758961 24.03573443 -25.77324998 15.88075563 -12.1875 7.75 C-11.08849365 7.09322266 -9.9894873 6.43644531 -8.85717773 5.75976562 C-7.84598877 5.15326172 -6.8347998 4.54675781 -5.79296875 3.921875 C-4.43981567 3.11121582 -4.43981567 3.11121582 -3.05932617 2.28417969 C-1.08601373 1.16129588 -1.08601373 1.16129588 0 0 Z " fill="#F5F5F5" transform="translate(129,28)"/>
<path d="M0 0 C2.421875 0.75 2.421875 0.75 5 2 C5.68578125 2.309375 6.3715625 2.61875 7.078125 2.9375 C13.21494553 5.93968558 19.05254952 9.35770545 24.91503906 12.85351562 C30.86685883 16.38185534 36.91250065 19.71225445 43 23 C52.46674432 28.1174261 61.77424877 33.46127675 71 39 C71.97839844 39.58652344 72.95679688 40.17304687 73.96484375 40.77734375 C74.63644531 41.18082031 75.30804688 41.58429688 76 42 C75.67 42.99 75.34 43.98 75 45 C69.43226913 43.44246757 64.82451913 40.77345657 59.875 37.875 C58.00144763 36.79141498 56.12774137 35.70809599 54.25390625 34.625 C53.2498877 34.04234375 52.24586914 33.4596875 51.21142578 32.859375 C47.82202685 30.89695579 44.42627064 28.94584908 41.02734375 27 C40.43532669 26.66105713 39.84330963 26.32211426 39.23335266 25.97290039 C36.22709154 24.25295784 33.21893937 22.53640182 30.20825195 20.82421875 C24.91476532 17.81304226 19.62996234 14.7922925 14.390625 11.6875 C12.78125397 10.74999318 11.17187929 9.81249264 9.5625 8.875 C8.85391846 8.44300293 8.14533691 8.01100586 7.4152832 7.56591797 C5.25366771 6.26546272 5.25366771 6.26546272 2 5 C-1.42885949 6.06396253 -4.44915844 7.72210483 -7.5546875 9.50390625 C-8.40820801 9.99213867 -9.26172852 10.48037109 -10.14111328 10.98339844 C-11.0432959 11.50450195 -11.94547852 12.02560547 -12.875 12.5625 C-13.81972168 13.10551758 -14.76444336 13.64853516 -15.73779297 14.20800781 C-21.46100529 17.50705385 -27.15557266 20.84760348 -32.80712891 24.26806641 C-37.13053363 26.88403533 -41.47140458 29.46964917 -45.8203125 32.04296875 C-46.73171494 32.58230545 -46.73171494 32.58230545 -47.66152954 33.13253784 C-50.13836354 34.5978362 -52.61544835 36.0627067 -55.09332275 37.52624512 C-56.83866143 38.55717667 -58.58340398 39.58911723 -60.328125 40.62109375 C-61.3480957 41.2236499 -62.36806641 41.82620605 -63.41894531 42.44702148 C-65.30860598 43.58399949 -67.16504396 44.77669597 -69 46 C-69.44786992 49.08259857 -69.44786992 49.08259857 -69.35644531 52.76953125 C-69.35848969 53.46577103 -69.36053406 54.1620108 -69.36264038 54.87934875 C-69.36565778 57.19066304 -69.3471292 59.5012699 -69.328125 61.8125 C-69.32506616 63.42236149 -69.32319099 65.03222562 -69.32244873 66.64208984 C-69.31783811 70.02500468 -69.30339412 73.40768249 -69.28125 76.79052734 C-69.25314823 81.10313872 -69.24205689 85.41556201 -69.2375679 89.72825623 C-69.23237604 93.86052785 -69.21784501 97.99275341 -69.203125 102.125 C-69.20124428 102.9036441 -69.19936356 103.68228821 -69.19742584 104.48452759 C-69.18234131 109.3251065 -69.11972047 114.16081055 -69 119 C-68.97692276 120.03747375 -68.95384552 121.07494751 -68.93006897 122.14385986 C-68.71136509 127.16571468 -68.71136509 127.16571468 -65.97241211 131.19824219 C-65.08303955 131.64329102 -64.19366699 132.08833984 -63.27734375 132.546875 C-61.77530396 133.33807739 -61.77530396 133.33807739 -60.24291992 134.14526367 C-59.15213135 134.67482666 -58.06134277 135.20438965 -56.9375 135.75 C-54.63923913 136.94656063 -52.34239788 138.14585133 -50.046875 139.34765625 C-49.45931931 139.6487178 -48.87176361 139.94977936 -48.2664032 140.25996399 C-42.26554984 143.33577491 -36.48260972 146.74466808 -30.6875 150.1875 C-26.79568196 152.46523974 -22.89801352 154.73288253 -19 157 C-18.0399707 157.56009766 -17.07994141 158.12019531 -16.09082031 158.69726562 C-13.34022067 160.29341994 -10.57864517 161.86847773 -7.8125 163.4375 C-6.99289795 163.91662842 -6.1732959 164.39575684 -5.32885742 164.8894043 C-1.0858893 167.31933802 -1.0858893 167.31933802 3.65234375 168.00390625 C6.70453037 166.69872828 9.51087952 165.18242042 12.375 163.5 C12.99020508 163.14107666 13.60541016 162.78215332 14.23925781 162.41235352 C19.03445356 159.60420806 23.78991622 156.72893884 28.54394531 153.85180664 C36.14366169 149.27335194 43.85371492 144.88427661 51.55200195 140.47436523 C58.4154074 136.53138679 65.1719051 132.48622497 71.77734375 128.125 C72.51082031 127.75375 73.24429688 127.3825 74 127 C74.99 127.33 75.98 127.66 77 128 C75.79753765 131.60738706 75.06507049 131.82036339 71.8359375 133.6015625 C70.96888184 134.0869751 70.10182617 134.5723877 69.20849609 135.07250977 C67.80591553 135.84099243 67.80591553 135.84099243 66.375 136.625 C64.43677397 137.70833748 62.49927681 138.79298 60.5625 139.87890625 C59.60859375 140.4114502 58.6546875 140.94399414 57.671875 141.49267578 C54.19932606 143.45169599 50.78092369 145.49044433 47.375 147.5625 C40.99342793 151.43017278 34.54623428 155.1768676 28.07495117 158.89233398 C24.24003941 161.09993507 20.42934518 163.33299553 16.66796875 165.6640625 C15.99378906 166.07978516 15.31960937 166.49550781 14.625 166.92382812 C13.37626991 167.69799043 12.13234487 168.47998482 10.89453125 169.27148438 C7.22362833 171.54253837 4.35007875 173.09084931 0 173 C-3.3912242 171.60391515 -6.44239688 169.72840854 -9.5625 167.8125 C-11.45157758 166.6922945 -13.34090744 165.57251435 -15.23046875 164.453125 C-16.19130371 163.87626953 -17.15213867 163.29941406 -18.14208984 162.70507812 C-22.51742287 160.09467954 -26.94568329 157.57980866 -31.375 155.0625 C-33.10550681 154.07298322 -34.83597502 153.08339894 -36.56640625 152.09375 C-40.42174108 149.8943456 -44.28480573 147.70912218 -48.15234375 145.53125 C-49.1798877 144.95238037 -50.20743164 144.37351074 -51.26611328 143.77709961 C-53.23878097 142.6668219 -55.21235668 141.55815532 -57.18701172 140.45141602 C-58.97418439 139.44567336 -60.75424595 138.42715744 -62.52587891 137.39428711 C-64.9532487 135.97957165 -64.9532487 135.97957165 -67.40771484 134.90454102 C-69.67023845 133.78835935 -71.27500178 132.84402281 -73 131 C-74.21475912 127.29325645 -74.07298718 123.68473535 -74 119.8125 C-73.99433685 117.94001061 -73.9888659 116.06751892 -73.98640442 114.19502258 C-73.98233604 112.74942953 -73.97242759 111.30384452 -73.95756531 109.85832214 C-73.91983316 103.69975455 -74.20046272 97.58264877 -74.53909302 91.43409729 C-74.80860983 86.2483866 -74.98856038 81.06127082 -75.15795898 75.87142944 C-75.26052672 73.26050938 -75.39696772 70.65068829 -75.56811523 68.04336548 C-76.86892382 47.4863652 -76.86892382 47.4863652 -72.12527466 41.72180176 C-67.44160802 37.83490991 -62.24769541 35.38995681 -56.63484192 33.12838745 C-52.30001878 31.27197246 -48.34215962 28.80792275 -44.3125 26.375 C-42.74276815 25.46549278 -41.17138014 24.55883218 -39.59765625 23.65625 C-29.55325212 17.86213453 -19.57269589 11.95843218 -9.625 6 C-9.00012695 5.62601074 -8.37525391 5.25202148 -7.73144531 4.86669922 C-5.11449854 3.29463798 -2.54080321 1.69386881 0 0 Z " fill="#FAFAFA" transform="translate(129,39)"/>
<path d="M0 0 C1.25159912 0.00523682 2.50319824 0.01047363 3.79272461 0.01586914 C4.78942421 0.01799156 4.78942421 0.01799156 5.80625916 0.02015686 C7.93590735 0.02577021 10.06545175 0.03832485 12.19506836 0.05102539 C13.63582205 0.05603868 15.07657739 0.06060188 16.51733398 0.06469727 C20.05577938 0.07574394 23.59416375 0.09301747 27.13256836 0.11352539 C28.87821947 3.32992193 29.33700536 5.43365943 29.13256836 9.11352539 C30.14319336 8.92790039 31.15381836 8.74227539 32.19506836 8.55102539 C38.81759922 7.96421886 45.4988159 8.67127523 52.13256836 9.11352539 C52.13256836 25.94352539 52.13256836 42.77352539 52.13256836 60.11352539 C25.73256836 60.11352539 -0.66743164 60.11352539 -27.86743164 60.11352539 C-27.86743164 43.28352539 -27.86743164 26.45352539 -27.86743164 9.11352539 C-14.36743164 7.98852539 -14.36743164 7.98852539 -9.61743164 8.05102539 C-8.24844727 8.06456055 -8.24844727 8.06456055 -6.85180664 8.07836914 C-5.86954102 8.09577148 -5.86954102 8.09577148 -4.86743164 8.11352539 C-4.72305664 6.97915039 -4.57868164 5.84477539 -4.42993164 4.67602539 C-3.71483424 0.14707517 -3.71483424 0.14707517 0 0 Z M0.13256836 4.11352539 C-0.19743164 5.76352539 -0.52743164 7.41352539 -0.86743164 9.11352539 C3.09088645 9.14245396 7.04917753 9.16029966 11.00756836 9.17602539 C12.13549805 9.1844043 13.26342773 9.1927832 14.42553711 9.20141602 C16.04008789 9.20625 16.04008789 9.20625 17.68725586 9.21118164 C19.17974854 9.21903687 19.17974854 9.21903687 20.70239258 9.22705078 C23.14217609 9.27746689 23.14217609 9.27746689 25.13256836 8.11352539 C24.80256836 6.79352539 24.47256836 5.47352539 24.13256836 4.11352539 C16.21256836 4.11352539 8.29256836 4.11352539 0.13256836 4.11352539 Z M-23.86743164 12.11352539 C-23.86743164 26.63352539 -23.86743164 41.15352539 -23.86743164 56.11352539 C-11.09497293 56.14258996 -11.09497293 56.14258996 1.67749023 56.16235352 C6.88347385 56.16834159 12.08943995 56.17544094 17.29541016 56.18896484 C21.49047094 56.19979498 25.68551295 56.20580249 29.88058662 56.20840263 C31.48463804 56.21025665 33.08868838 56.21387683 34.69273186 56.21925545 C36.93173351 56.22646758 39.17065665 56.22751626 41.40966797 56.22705078 C42.68651962 56.22927139 43.96337128 56.231492 45.27891541 56.23377991 C48.03145691 56.44020628 48.03145691 56.44020628 49.13256836 55.11352539 C49.22525835 53.76257557 49.25004162 52.40685448 49.24609375 51.05273438 C49.24591248 49.74338928 49.24591248 49.74338928 49.24572754 48.40759277 C49.24061157 47.48426147 49.23549561 46.56093018 49.23022461 45.60961914 C49.22921753 44.76532349 49.22821045 43.92102783 49.22717285 43.05114746 C49.22192406 39.88442637 49.20796292 36.71772458 49.19506836 33.55102539 C49.16413086 22.93946289 49.16413086 22.93946289 49.13256836 12.11352539 C25.04256836 12.11352539 0.95256836 12.11352539 -23.86743164 12.11352539 Z " fill="#FEFEFE" transform="translate(119.867431640625,81.886474609375)"/>
<path d="M0 0 C1.92585938 -0.03577148 1.92585938 -0.03577148 3.890625 -0.07226562 C5.12296875 -0.07033203 6.3553125 -0.06839844 7.625 -0.06640625 C9.31496094 -0.0674939 9.31496094 -0.0674939 11.0390625 -0.06860352 C14 0.5625 14 0.5625 16.36523438 2.68579102 C18.31920281 6.12420352 18.51588418 8.27851357 18.53125 12.21875 C18.53898437 14.12333984 18.53898437 14.12333984 18.546875 16.06640625 C18.53140625 17.38511719 18.5159375 18.70382813 18.5 20.0625 C18.51546875 21.38121094 18.5309375 22.69992188 18.546875 24.05859375 C18.54171875 25.32832031 18.5365625 26.59804687 18.53125 27.90625 C18.52673828 29.06318359 18.52222656 30.22011719 18.51757812 31.41210938 C17.87828621 35.30334659 16.94230391 36.94148735 14 39.5625 C10.93139648 40.17773438 10.93139648 40.17773438 7.37109375 40.15625 C6.08912109 40.15367187 4.80714844 40.15109375 3.48632812 40.1484375 C2.82189697 40.13393555 2.15746582 40.11943359 1.47290039 40.10449219 C-0.56006389 40.06255026 -2.58972194 40.0634307 -4.62304688 40.0703125 C-14.28727729 39.97303791 -14.28727729 39.97303791 -16.87890625 38.48022461 C-18.62426286 35.49464618 -18.40785111 32.84158576 -18.43359375 29.41015625 C-18.4388356 28.71361435 -18.44407745 28.01707245 -18.44947815 27.29942322 C-18.45589525 25.82764009 -18.45456529 24.35580566 -18.44604492 22.8840332 C-18.43754141 20.63594844 -18.46628321 18.39041134 -18.49804688 16.14257812 C-18.49965925 14.71093826 -18.49908066 13.27929391 -18.49609375 11.84765625 C-18.49794678 10.54707275 -18.4997998 9.24648926 -18.50170898 7.90649414 C-18 4.5625 -18 4.5625 -16.36743164 2.14257812 C-11.57913375 -1.05324161 -5.56623542 -0.04750301 0 0 Z M-8 9.5625 C-8.495 19.9575 -8.495 19.9575 -9 30.5625 C-3.39 30.5625 2.22 30.5625 8 30.5625 C8 23.6325 8 16.7025 8 9.5625 C2.72 9.5625 -2.56 9.5625 -8 9.5625 Z " fill="#FDFDFD" transform="translate(368,105.4375)"/>
<path d="M0 0 C5.218125 -0.061875 10.43625 -0.12375 15.8125 -0.1875 C17.45581299 -0.21481201 19.09912598 -0.24212402 20.79223633 -0.27026367 C22.08411865 -0.27775635 23.37600098 -0.28524902 24.70703125 -0.29296875 C25.38262085 -0.30831665 26.05821045 -0.32366455 26.75427246 -0.33947754 C29.54129147 -0.34103366 31.53805046 -0.28834696 33.93530273 1.20800781 C35.3463609 3.58296011 35.35738401 5.20819099 35.328125 7.96484375 C35.32296875 8.92970703 35.3178125 9.89457031 35.3125 10.88867188 C35.291875 11.89478516 35.27125 12.90089844 35.25 13.9375 C35.24484375 14.93974609 35.2396875 15.94199219 35.234375 16.97460938 C35.15521183 24.3912086 35.15521183 24.3912086 34.42480469 27.25610352 C34.28461914 27.83158936 34.14443359 28.4070752 34 29 C34.33 29.33 34.66 29.66 35 30 C35.07179964 31.51928038 35.08392007 33.04167482 35.0625 34.5625 C35.05347656 35.38878906 35.04445313 36.21507812 35.03515625 37.06640625 C35.02355469 37.70449219 35.01195312 38.34257812 35 39 C32.36 39 29.72 39 27 39 C26.5875 38.0925 26.175 37.185 25.75 36.25 C23.53691247 32.01626812 23.53691247 32.01626812 20 29 C16.59356588 28.66740328 13.43785952 28.81906003 10 29 C9.67 32.3 9.34 35.6 9 39 C6.03 39 3.06 39 0 39 C0 26.13 0 13.26 0 0 Z M10 9 C10 12.3 10 15.6 10 19 C15.28 19 20.56 19 26 19 C26 15.7 26 12.4 26 9 C20.72 9 15.44 9 10 9 Z " fill="#FDFDFD" transform="translate(389,106)"/>
<path d="M0 0 C1.23234375 -0.00515625 2.4646875 -0.0103125 3.734375 -0.015625 C5.66023438 0.00757812 5.66023438 0.00757812 7.625 0.03125 C8.90890625 0.01578125 10.1928125 0.0003125 11.515625 -0.015625 C12.74796875 -0.01046875 13.9803125 -0.0053125 15.25 0 C16.93996094 0.00676758 16.93996094 0.00676758 18.6640625 0.01367188 C21.625 0.53125 21.625 0.53125 24.00610352 2.10913086 C26.25762983 5.47776191 26.03778924 7.78970898 25.90234375 11.81640625 C25.87123253 12.86265419 25.87123253 12.86265419 25.8394928 13.93003845 C25.79101612 15.40041544 25.73240177 16.87048879 25.66430664 18.34008789 C25.56270295 20.5892573 25.49869993 22.83724944 25.43945312 25.08789062 C25.05078407 35.81943751 25.05078407 35.81943751 23.4765625 38.45117188 C18.98826502 41.0693454 12.7245396 39.99638463 7.6875 39.96875 C5.75487305 39.9987207 5.75487305 39.9987207 3.78320312 40.02929688 C2.54634766 40.02865234 1.30949219 40.02800781 0.03515625 40.02734375 C-1.09784912 40.02919678 -2.23085449 40.0310498 -3.39819336 40.03295898 C-6.375 39.53125 -6.375 39.53125 -8.74243164 37.93969727 C-10.95414101 34.67687195 -10.89210855 32.42526341 -10.90625 28.5 C-10.9100769 27.82706909 -10.91390381 27.15413818 -10.91784668 26.46081543 C-10.9205613 25.0420583 -10.91323134 23.62325073 -10.89648438 22.20458984 C-10.87506275 20.03759797 -10.89629538 17.87392049 -10.921875 15.70703125 C-10.91923164 14.32551354 -10.91410647 12.9439979 -10.90625 11.5625 C-10.90173828 10.31017578 -10.89722656 9.05785156 -10.89257812 7.76757812 C-10.375 4.53125 -10.375 4.53125 -8.74023438 2.125 C-5.66567325 0.05328912 -3.6934245 0.0147906 0 0 Z M-0.375 9.53125 C-0.375 16.46125 -0.375 23.39125 -0.375 30.53125 C4.905 30.53125 10.185 30.53125 15.625 30.53125 C15.625 23.60125 15.625 16.67125 15.625 9.53125 C10.345 9.53125 5.065 9.53125 -0.375 9.53125 Z " fill="#FDFDFD" transform="translate(285.375,105.46875)"/>
<path d="M0 0 C1.93842773 -0.0299707 1.93842773 -0.0299707 3.91601562 -0.06054688 C5.15158203 -0.05990234 6.38714844 -0.05925781 7.66015625 -0.05859375 C8.79203369 -0.06044678 9.92391113 -0.0622998 11.09008789 -0.06420898 C13.9375 0.4375 13.9375 0.4375 15.80493164 2.01318359 C17.36159179 5.34528864 17.32638057 8.04938258 17.3359375 11.72265625 C17.33880768 12.42015488 17.34167786 13.1176535 17.34463501 13.83628845 C17.3466711 15.30631322 17.34117302 16.77636537 17.32861328 18.24633789 C17.31252702 20.49622033 17.32848787 22.74431322 17.34765625 24.99414062 C17.34567421 26.42448313 17.34183134 27.85482452 17.3359375 29.28515625 C17.33255371 30.58461182 17.32916992 31.88406738 17.32568359 33.22290039 C16.9375 36.4375 16.9375 36.4375 15.82080078 38.35961914 C13.00184876 39.9730069 10.63699747 39.82667402 7.40625 39.8359375 C6.12105469 39.83980469 4.83585937 39.84367187 3.51171875 39.84765625 C2.84317871 39.84137207 2.17463867 39.83508789 1.48583984 39.82861328 C-0.5556933 39.81255354 -2.59524708 39.82846671 -4.63671875 39.84765625 C-5.92191406 39.84378906 -7.20710938 39.83992188 -8.53125 39.8359375 C-9.71138672 39.83255371 -10.89152344 39.82916992 -12.10742188 39.82568359 C-15.0625 39.4375 -15.0625 39.4375 -16.94360352 38.37548828 C-18.66686752 35.39070327 -18.51022099 32.38514904 -18.49609375 29.03125 C-18.5013356 28.31014038 -18.50657745 27.58903076 -18.51197815 26.84606934 C-18.5183953 25.32301114 -18.51706524 23.79990336 -18.50854492 22.27685547 C-18.50002883 19.94539318 -18.52880448 17.61637675 -18.56054688 15.28515625 C-18.56215887 13.80468823 -18.56158139 12.32421588 -18.55859375 10.84375 C-18.56982773 10.1468103 -18.58106171 9.44987061 -18.59263611 8.73181152 C-18.54866401 5.68138004 -18.43002458 3.87387352 -16.43212891 1.50170898 C-11.33667834 -0.78667645 -5.48453498 -0.03018003 0 0 Z M-8.0625 9.4375 C-9.23676264 11.78602528 -9.17758173 13.17524065 -9.16015625 15.7890625 C-9.15693359 16.63984375 -9.15371094 17.490625 -9.15039062 18.3671875 C-9.14201172 19.25664063 -9.13363281 20.14609375 -9.125 21.0625 C-9.12048828 21.9596875 -9.11597656 22.856875 -9.11132812 23.78125 C-9.09952611 26.00002831 -9.08159039 28.21877243 -9.0625 30.4375 C-3.4525 30.4375 2.1575 30.4375 7.9375 30.4375 C7.9375 23.5075 7.9375 16.5775 7.9375 9.4375 C2.6575 9.4375 -2.6225 9.4375 -8.0625 9.4375 Z " fill="#FDFDFD" transform="translate(459.0625,105.5625)"/>
<path d="M0 0 C0.721875 0.00257812 1.44375 0.00515625 2.1875 0.0078125 C2.909375 0.00523438 3.63125 0.00265625 4.375 0 C6.1875 0.1328125 6.1875 0.1328125 7.1875 1.1328125 C7.33176614 5.80126478 7.22958415 10.46147203 7.1875 15.1328125 C12.4675 15.1328125 17.7475 15.1328125 23.1875 15.1328125 C23.166875 12.8434375 23.14625 10.5540625 23.125 8.1953125 C23.10379132 5.84114918 23.11478259 3.48594805 23.1875 1.1328125 C24.1875 0.1328125 24.1875 0.1328125 26 0 C26.721875 0.00257812 27.44375 0.00515625 28.1875 0.0078125 C28.909375 0.00523438 29.63125 0.00265625 30.375 0 C32.1875 0.1328125 32.1875 0.1328125 33.1875 1.1328125 C33.28849488 3.86005529 33.32720529 6.56143773 33.3203125 9.2890625 C33.32126923 10.10652954 33.32222595 10.92399658 33.32321167 11.76623535 C33.32389345 13.49796628 33.32203929 15.22969974 33.31787109 16.96142578 C33.31252279 19.62147732 33.31781612 22.28136 33.32421875 24.94140625 C33.32355797 26.61979204 33.3222768 28.29817773 33.3203125 29.9765625 C33.32233673 30.77759399 33.32436096 31.57862549 33.32644653 32.40393066 C33.30245079 38.01786171 33.30245079 38.01786171 32.1875 39.1328125 C30.375 39.265625 30.375 39.265625 28.1875 39.2578125 C27.465625 39.26039063 26.74375 39.26296875 26 39.265625 C24.1875 39.1328125 24.1875 39.1328125 23.1875 38.1328125 C23.04323386 33.46436022 23.14541585 28.80415297 23.1875 24.1328125 C17.9075 24.1328125 12.6275 24.1328125 7.1875 24.1328125 C7.208125 26.4221875 7.22875 28.7115625 7.25 31.0703125 C7.27120868 33.42447582 7.26021741 35.77967695 7.1875 38.1328125 C6.1875 39.1328125 6.1875 39.1328125 4.12109375 39.23046875 C3.29738281 39.21886719 2.47367188 39.20726562 1.625 39.1953125 C0.79871094 39.18628906 -0.02757812 39.17726562 -0.87890625 39.16796875 C-1.51699219 39.15636719 -2.15507812 39.14476562 -2.8125 39.1328125 C-2.83714849 33.73934262 -2.85533531 28.34590525 -2.86743164 22.95239258 C-2.87247231 21.11612375 -2.87930477 19.27985896 -2.88793945 17.44360352 C-2.90001672 14.81004849 -2.90573081 12.17654634 -2.91015625 9.54296875 C-2.91531754 8.71692642 -2.92047882 7.89088409 -2.92579651 7.03981018 C-2.92599205 5.07044882 -2.87454152 3.10119636 -2.8125 1.1328125 C-1.8125 0.1328125 -1.8125 0.1328125 0 0 Z " fill="#FDFDFD" transform="translate(238.8125,105.8671875)"/>
<path d="M0 0 C4.50229474 -0.09889302 9.00395727 -0.17147709 13.50708008 -0.21972656 C15.03876762 -0.2398398 16.57037839 -0.2671345 18.10180664 -0.30175781 C20.30374073 -0.35029315 22.50465982 -0.37296996 24.70703125 -0.390625 C25.39150833 -0.41127014 26.07598541 -0.43191528 26.78120422 -0.45318604 C29.89398816 -0.45465448 31.57083157 -0.38614293 33.92871094 1.73535156 C35.81483913 5.72252683 35.47159103 9.66114125 35.4375 14 C35.4674707 15.35351562 35.4674707 15.35351562 35.49804688 16.734375 C35.49526994 20.48879505 35.38833008 23.234795 33.67578125 26.609375 C29.22464821 28.92266458 24.67460513 28.41248697 19.75 28.25 C18.71875 28.23195312 17.6875 28.21390625 16.625 28.1953125 C14.0829355 28.14823723 11.54134933 28.07649546 9 28 C9 31.63 9 35.26 9 39 C6.03 39 3.06 39 0 39 C-0.16789062 34.08891375 -0.3284207 29.17766238 -0.48217773 24.26611328 C-0.53549939 22.59580028 -0.59082081 20.92554986 -0.64819336 19.25537109 C-0.73037953 16.85267629 -0.80533723 14.4498472 -0.87890625 12.046875 C-0.90594131 11.30193787 -0.93297638 10.55700073 -0.96083069 9.78948975 C-1.05908095 6.36513196 -1.10855562 3.2696792 0 0 Z M9 10 C8.83946185 11.87321948 8.83946185 11.87321948 8.875 14 C8.87242187 14.721875 8.86984375 15.44375 8.8671875 16.1875 C8.80304724 18.02089415 8.80304724 18.02089415 10 19 C12.69654854 19.07319621 15.36691458 19.09242537 18.0625 19.0625 C18.82111328 19.05798828 19.57972656 19.05347656 20.36132812 19.04882812 C22.24091871 19.0370068 24.12046899 19.01907078 26 19 C26 15.7 26 12.4 26 9 C23.35409986 8.97315321 20.70846904 8.95323643 18.0625 8.9375 C16.93038086 8.92493164 16.93038086 8.92493164 15.77539062 8.91210938 C12.08808236 8.534744 12.08808236 8.534744 9 10 Z " fill="#FDFDFD" transform="translate(198,106)"/>
<path d="M0 0 C2.65290679 1.40448007 4.98141006 2.65789726 7.1875 4.6875 C7.1875 5.3475 7.1875 6.0075 7.1875 6.6875 C7.8475 6.6875 8.5075 6.6875 9.1875 6.6875 C12.4616604 12.96297409 13.62938926 19.01154272 11.49609375 25.9296875 C8.9223186 31.63722235 5.33294977 34.8526543 -0.0625 38 C-6.07640804 39.50347701 -11.65973236 39.78162545 -17.125 36.5625 C-22.47424769 32.72617085 -26.51029353 28.32875299 -27.8125 21.6875 C-27.90538422 15.45264698 -26.51746658 9.7638572 -22.8125 4.6875 C-16.35066233 -1.24443755 -8.34449438 -3.44232922 0 0 Z M-17.8125 5.6875 C-17.1525 8.3275 -16.4925 10.9675 -15.8125 13.6875 C-12.46541949 12.13908425 -9.56582488 10.19644136 -6.5625 8.0625 C-5.67046875 7.43085937 -4.7784375 6.79921875 -3.859375 6.1484375 C-3.18390625 5.66632813 -2.5084375 5.18421875 -1.8125 4.6875 C-2.1425 4.0275 -2.4725 3.3675 -2.8125 2.6875 C-10.82188881 2.14823846 -10.82188881 2.14823846 -17.8125 5.6875 Z M1.1875 5.6875 C-1.50683317 7.55947454 -1.50683317 7.55947454 -3.8125 9.6875 C-2.55298228 13.46605316 -1.06818603 14.16908773 2.1875 16.375 C3.095 16.99761719 4.0025 17.62023437 4.9375 18.26171875 C6.88432937 19.77671023 6.88432937 19.77671023 8.1875 19.6875 C8.73748918 14.05011092 7.30338996 11.2277968 4.1875 6.6875 C3.1975 6.3575 2.2075 6.0275 1.1875 5.6875 Z M-21.8125 9.6875 C-24.13336397 15.011835 -23.72707003 19.12592552 -22.8125 24.6875 C-20.5025 24.6875 -18.1925 24.6875 -15.8125 24.6875 C-16.8806847 19.57384986 -18.04357476 14.61522031 -19.8125 9.6875 C-20.4725 9.6875 -21.1325 9.6875 -21.8125 9.6875 Z M-13.8125 16.6875 C-13.1525 19.3275 -12.4925 21.9675 -11.8125 24.6875 C-9.1725 24.6875 -6.5325 24.6875 -3.8125 24.6875 C-2.27593038 22.2470659 -1.79160293 20.98005898 -2 18.0625 C-2.6589189 15.35098833 -2.6589189 15.35098833 -5.8125 13.6875 C-9.38825896 13.6875 -10.86545935 14.77590607 -13.8125 16.6875 Z M1.1875 19.6875 C0.51718281 21.6445868 -0.14864683 23.60321113 -0.8125 25.5625 C-1.18375 26.65304688 -1.555 27.74359375 -1.9375 28.8671875 C-2.911272 31.51370854 -2.911272 31.51370854 -2.8125 33.6875 C1.37912145 32.73485876 2.9082791 32.05489592 5.5625 28.5625 C6.09875 27.61375 6.635 26.665 7.1875 25.6875 C5.79590337 22.20850842 4.55498512 21.20697499 1.1875 19.6875 Z M-19.8125 28.6875 C-15.5756699 33.5481329 -15.5756699 33.5481329 -10.5 34.5 C-9.283125 34.561875 -8.06625 34.62375 -6.8125 34.6875 C-6.1525 32.7075 -5.4925 30.7275 -4.8125 28.6875 C-9.7625 28.6875 -14.7125 28.6875 -19.8125 28.6875 Z " fill="#FDFDFD" transform="translate(139.8125,97.3125)"/>
<path d="M0 0 C4.82380802 -0.0246519 9.64757967 -0.04283693 14.47143555 -0.05493164 C16.11369464 -0.05997174 17.75594923 -0.06680378 19.39819336 -0.07543945 C21.75375479 -0.08751926 24.10925709 -0.09323139 26.46484375 -0.09765625 C27.20339096 -0.10281754 27.94193817 -0.10797882 28.7028656 -0.11329651 C30.46898088 -0.1134925 32.23497146 -0.06194719 34 0 C35 1 35 1 35.09765625 2.84765625 C35.06510417 4.8984375 35.03255208 6.94921875 35 9 C30.71 9 26.42 9 22 9 C22 18.9 22 28.8 22 39 C19.03 39 16.06 39 13 39 C12.67 29.43 12.34 19.86 12 10 C8.04 9.67 4.08 9.34 0 9 C-1.125 2.25 -1.125 2.25 0 0 Z " fill="#FDFDFD" transform="translate(313,106)"/>
<path d="M0 0 C2.05078125 0.03255208 4.1015625 0.06510417 6.15234375 0.09765625 C7.19223994 13.20034829 6.99288846 25.98515883 6.15234375 39.09765625 C3.18234375 39.09765625 0.21234375 39.09765625 -2.84765625 39.09765625 C-2.87230474 33.70418637 -2.89049156 28.310749 -2.90258789 22.91723633 C-2.90762856 21.0809675 -2.91446102 19.24470271 -2.9230957 17.40844727 C-2.93517297 14.77489224 -2.94088706 12.14139009 -2.9453125 9.5078125 C-2.95047379 8.68177017 -2.95563507 7.85572784 -2.96095276 7.00465393 C-2.9611483 5.03529257 -2.90969777 3.06604011 -2.84765625 1.09765625 C-1.84765625 0.09765625 -1.84765625 0.09765625 0 0 Z " fill="#FDFDFD" transform="translate(430.84765625,105.90234375)"/>
<path d="M0 0 C0.33 0 0.66 0 1 0 C1.06058594 0.78246094 1.12117188 1.56492188 1.18359375 2.37109375 C1.26738281 3.38300781 1.35117187 4.39492187 1.4375 5.4375 C1.55931641 6.95150391 1.55931641 6.95150391 1.68359375 8.49609375 C1.73211468 10.93640779 1.73211468 10.93640779 3 12 C3.10024126 14.63575543 3.13875021 17.23954245 3.125 19.875 C3.12886719 20.60847656 3.13273437 21.34195313 3.13671875 22.09765625 C3.13084138 25.32433238 3.0271886 27.91843421 2 31 C1.64456573 33.33006911 1.3086247 35.66327016 1 38 C0.67 38 0.34 38 0 38 C-1.40027356 10.83596307 -1.40027356 10.83596307 0 0 Z " fill="#F2F2F2" transform="translate(56,128)"/>
<path d="M0 0 C-0.33 0.99 -0.66 1.98 -1 3 C-1.66 3 -2.32 3 -3 3 C-3 3.66 -3 4.32 -3 5 C-3.86625 5.226875 -4.7325 5.45375 -5.625 5.6875 C-9.61778814 7.24025095 -11.84248305 9.14319895 -15 12 C-16.04935847 8.8519246 -16.25909484 7.96912132 -15 5 C-13.00390625 3.55078125 -13.00390625 3.55078125 -10.5625 2.3125 C-9.75941406 1.89613281 -8.95632812 1.47976562 -8.12890625 1.05078125 C-7.42636719 0.70402344 -6.72382812 0.35726562 -6 0 C-3.50907189 -1.24546405 -2.58919267 -0.7767578 0 0 Z " fill="#F0F0F0" transform="translate(64,72)"/>
<path d="M0 0 C0.66 0.66 1.32 1.32 2 2 C2.66 2.33 3.32 2.66 4 3 C4 3.66 4 4.32 4 5 C4.99 5.33 5.98 5.66 7 6 C6.67 6.99 6.34 7.98 6 9 C-3.86 7.26 -3.86 7.26 -7.375 3.375 C-7.91125 2.59125 -8.4475 1.8075 -9 1 C-5.66429909 -1.10025613 -3.74952434 -1.18406032 0 0 Z " fill="#F1F1F1" transform="translate(88,190)"/>
<path d="M0 0 C1 1 1 1 1.1875 3.4375 C1 6 1 6 -1 8 C-3.5 8.3125 -3.5 8.3125 -6 8 C-8 5 -8 5 -7.75 2.375 C-7.5025 1.59125 -7.255 0.8075 -7 0 C-4.31633121 -1.3418344 -2.84719317 -0.73004953 0 0 Z " fill="#FDFDFD" transform="translate(108,99)"/>
<path d="M0 0 C2.11924028 0.77063283 4.07572958 1.6856587 6.0625 2.75 C6.0625 3.74 6.0625 4.73 6.0625 5.75 C3.44279207 7.28064939 0.81748357 8.79969748 -1.8125 10.3125 C-2.55886719 10.75013672 -3.30523437 11.18777344 -4.07421875 11.63867188 C-4.78964844 12.04794922 -5.50507813 12.45722656 -6.2421875 12.87890625 C-7.2319458 13.45233765 -7.2319458 13.45233765 -8.24169922 14.03735352 C-8.80131348 14.27252686 -9.36092773 14.5077002 -9.9375 14.75 C-10.5975 14.42 -11.2575 14.09 -11.9375 13.75 C-10.83682004 12.93278283 -9.73180269 12.12140549 -8.625 11.3125 C-7.70267578 10.63380859 -7.70267578 10.63380859 -6.76171875 9.94140625 C-4.9375 8.75 -4.9375 8.75 -1.9375 7.75 C-1.2775 7.09 -0.6175 6.43 0.0625 5.75 C0.7225 5.09 1.3825 4.43 2.0625 3.75 C-0.9375 2.41666667 -0.9375 2.41666667 -3.9375 3.75 C-4.2675 3.09 -4.5975 2.43 -4.9375 1.75 C-1.9375 -0.25 -1.9375 -0.25 0 0 Z " fill="#FBFBFB" transform="translate(208.9375,169.25)"/>
<path d="M0 0 C0 0.99 0 1.98 0 3 C-2.421875 4.83203125 -2.421875 4.83203125 -5.75 6.8125 C-6.32967529 7.15925781 -6.90935059 7.50601563 -7.5065918 7.86328125 C-13.18403041 11.21082397 -19.04954673 14.16951412 -25 17 C-23.61046967 13.58737111 -22.32667342 12.28955136 -19.0625 10.625 C-18.26714844 10.20863281 -17.47179687 9.79226562 -16.65234375 9.36328125 C-15.77707031 8.91339844 -14.90179688 8.46351562 -14 8 C-12.03898319 6.94246098 -10.08065186 5.87992751 -8.125 4.8125 C-6.76761719 4.07966797 -6.76761719 4.07966797 -5.3828125 3.33203125 C-2.85403197 1.95915385 -2.85403197 1.95915385 0 0 Z " fill="#FBFBFB" transform="translate(104,50)"/>
<path d="M0 0 C3.68644964 2.01079071 7.23020154 4.2116943 10.75 6.5 C7.75 7.5 7.75 7.5 5.5625 6.5625 C4.964375 6.211875 4.36625 5.86125 3.75 5.5 C3.75 4.84 3.75 4.18 3.75 3.5 C-1.07360189 3.30705592 -4.74646738 3.74252386 -9.25 5.5 C-8.2746803 4.47591432 -7.26801357 3.48165594 -6.25 2.5 C-5.63125 1.901875 -5.0125 1.30375 -4.375 0.6875 C-2.25 -0.5 -2.25 -0.5 0 0 Z " fill="#FCFCFC" transform="translate(131.25,28.5)"/>
<path d="M0 0 C-0.66 1.32 -1.32 2.64 -2 4 C-2.99 3.67 -3.98 3.34 -5 3 C-2.25 0 -2.25 0 0 0 Z M-8 4 C-6.68 4.33 -5.36 4.66 -4 5 C-5.04874998 7.62187494 -5.64931313 8.79371361 -8.125 10.25 C-8.74375 10.4975 -9.3625 10.745 -10 11 C-9.34 8.69 -8.68 6.38 -8 4 Z " fill="#EFEFEF" transform="translate(183,186)"/>
<path d="M0 0 C1.65 1.65 3.3 3.3 5 5 C5.66 4.34 6.32 3.68 7 3 C7.99 3.99 8.98 4.98 10 6 C9.34 6.66 8.68 7.32 8 8 C4.61702587 7.82194873 3.23727939 7.21162756 0.6875 4.9375 C0.130625 4.298125 -0.42625 3.65875 -1 3 C-0.67 2.01 -0.34 1.02 0 0 Z " fill="#E9E9EB" transform="translate(182,60)"/>
<path d="M0 0 C1.485 0.99 1.485 0.99 3 2 C3.1875 4.625 3.1875 4.625 3 7 C4.98 7.99 6.96 8.98 9 10 C9 10.66 9 11.32 9 12 C5.9168649 10.80100302 2.93720508 9.52299523 0 8 C0 5.36 0 2.72 0 0 Z " fill="#FBFBFB" transform="translate(47,168)"/>
<path d="M0 0 C1.98 0.99 3.96 1.98 6 3 C5.67 3.99 5.34 4.98 5 6 C2.9375 6.6875 2.9375 6.6875 1 7 C0.01 5.35 -0.98 3.7 -2 2 C-1.34 1.34 -0.68 0.68 0 0 Z " fill="#E9E9E9" transform="translate(124,212)"/>
<path d="M0 0 C1.75 1.3125 1.75 1.3125 3 3 C3 3.66 3 4.32 3 5 C1.35 5.33 -0.3 5.66 -2 6 C-2.66 4.35 -3.32 2.7 -4 1 C-2.1875 0.3125 -2.1875 0.3125 0 0 Z " fill="#ECECEC" transform="translate(138,35)"/>
<path d="M0 0 C4.12751449 0.60698743 7.3321148 2.03810791 11 4 C11 4.99 11 5.98 11 7 C7.37 5.02 3.74 3.04 0 1 C0 0.67 0 0.34 0 0 Z " fill="#FDFDFD" transform="translate(84,196)"/>
<path d="M0 0 C0.66 0.33 1.32 0.66 2 1 C0.515 3.475 0.515 3.475 -1 6 C-1.99 5.67 -2.98 5.34 -4 5 C-2.25 1.125 -2.25 1.125 0 0 Z " fill="#E8E8E8" transform="translate(138,212)"/>
</svg>
